# xmcd CD database file
#
# Track frame offsets:
#	150
#	17724
#	30290
#	43963
#	64999
#	76537
#	93568
#	107847
#	120138
#	138977
#	156304
#	169319
#	187033
#
# Disc length: 2800 seconds
#
# Revision: 0
# Processed by: cddbd v1.5.2PL0 Copyright (c) Steve Scherf et al.
# Submitted via: CDex 1.51
#
DISCID=a40aee0d
DTITLE=Maggie Mae - From The Heart Of A Cowgirl
DYEAR=2009
DGENRE=Country
TTITLE0=01 - Maggie Mae's Cafe
TTITLE1=02 - Honky Tonk Saturday Night
TTITLE2=03 - On The Wings Of A Dove
TTITLE3=04 - Tall In The Saddle
TTITLE4=05 - San Antonio Stroll
TTITLE5=06 - Grandpa
TTITLE6=07 - God Must Be A Cowboy At Heart
TTITLE7=08 - Rose Of San Antonio
TTITLE8=09 - Walking Piece Of Heaven
TTITLE9=10 - Cowgirl's Heart
TTITLE10=11 - Whatever Happened To The Yodelling Cowgirl
TTITLE11=12 - Rainbow Rider
TTITLE12=13 - Travelin' Soldier
EXTD=YEAR: 2009
EXTT0=
EXTT1=
EXTT2=
EXTT3=
EXTT4=
EXTT5=
EXTT6=
EXTT7=
EXTT8=
EXTT9=
EXTT10=
EXTT11=
EXTT12=
PLAYORDER=
